<mxfile host="app.diagrams.net" modified="2024-01-06T15:45:51.500Z" agent="Mozilla/5.0 (X11; Linux x86_64) AppleWebKit/537.36 (KHTML, like Gecko) Chrome/117.0.0.0 Safari/537.36" version="21.8.2" etag="WLfwtndzIc727UoGvZBE" type="github">
  <diagram name="Page-1" id="ThETKJYAvpkny90T1bRP">
    <mxGraphModel>
      <root>
        <mxCell id="0" />
        <mxCell id="1" parent="0" />
      </root>
    </mxGraphModel>
  </diagram>
</mxfile>
